<svg width="15" height="16" viewBox="0 0 15 16" fill="none" xmlns="http://www.w3.org/2000/svg">
<path d="M8.0625 4.0625C8.0625 3.75184 7.81066 3.5 7.5 3.5C7.18934 3.5 6.9375 3.75184 6.9375 4.0625V7.4375H3.5625C3.25184 7.4375 3 7.68934 3 8C3 8.31066 3.25184 8.5625 3.5625 8.5625L6.9375 8.5625V11.9375C6.9375 12.2482 7.18934 12.5 7.5 12.5C7.81066 12.5 8.0625 12.2482 8.0625 11.9375V8.5625L11.4375 8.5625C11.7482 8.5625 12 8.31066 12 8C12 7.68934 11.7482 7.4375 11.4375 7.4375H8.0625V4.0625Z" fill="#0F172A"/>
</svg>
