<svg width="20" height="20" viewBox="0 0 20 20" fill="none" xmlns="http://www.w3.org/2000/svg">
<path d="M8.33398 12.5L8.33398 10" stroke="#33363F" stroke-width="2" stroke-linecap="round"/>
<path d="M11.666 12.5L11.666 10" stroke="#33363F" stroke-width="2" stroke-linecap="round"/>
<path d="M2.5 5.83325H17.5V5.83325C17.0353 5.83325 16.803 5.83325 16.6098 5.87168C15.8164 6.02949 15.1962 6.64969 15.0384 7.44307C15 7.63627 15 7.8686 15 8.33325V12.6666C15 14.5522 15 15.495 14.4142 16.0808C13.8284 16.6666 12.8856 16.6666 11 16.6666H9C7.11438 16.6666 6.17157 16.6666 5.58579 16.0808C5 15.495 5 14.5522 5 12.6666V8.33325C5 7.8686 5 7.63627 4.96157 7.44307C4.80376 6.64969 4.18356 6.02949 3.39018 5.87168C3.19698 5.83325 2.96466 5.83325 2.5 5.83325V5.83325Z" stroke="#33363F" stroke-width="2" stroke-linecap="round"/>
<path d="M8.38947 2.80883C8.48443 2.72023 8.69367 2.64194 8.98475 2.5861C9.27582 2.53027 9.63246 2.5 9.99935 2.5C10.3662 2.5 10.7229 2.53027 11.014 2.5861C11.305 2.64194 11.5143 2.72023 11.6092 2.80883" stroke="#33363F" stroke-width="2" stroke-linecap="round"/>
</svg>
