<svg width="55" height="36" viewBox="0 0 55 36" fill="none" xmlns="http://www.w3.org/2000/svg">
<g clip-path="url(#clip0_83_41813)">
<path d="M18.4633 20.4365C18.4633 20.2314 18.4314 20.0492 18.3676 19.8896C18.3083 19.7301 18.2012 19.5843 18.0463 19.4521C17.8913 19.32 17.6726 19.1924 17.39 19.0693C17.112 18.9417 16.7566 18.8118 16.3236 18.6797C15.8497 18.5339 15.4122 18.3721 15.0111 18.1943C14.6146 18.012 14.2683 17.8024 13.9721 17.5654C13.6758 17.3239 13.4457 17.0482 13.2816 16.7383C13.1176 16.4238 13.0355 16.0615 13.0355 15.6514C13.0355 15.2458 13.1199 14.8766 13.2885 14.5439C13.4617 14.2113 13.7055 13.9242 14.0199 13.6826C14.3389 13.4365 14.7149 13.2474 15.1479 13.1152C15.5808 12.9785 16.0593 12.9102 16.5834 12.9102C17.3217 12.9102 17.9574 13.0469 18.4906 13.3203C19.0284 13.5938 19.4408 13.9606 19.7279 14.4209C20.0196 14.8812 20.1654 15.3893 20.1654 15.9453H18.4633C18.4633 15.6172 18.3926 15.3278 18.2514 15.0771C18.1146 14.8219 17.905 14.6214 17.6225 14.4756C17.3445 14.3298 16.9913 14.2568 16.5629 14.2568C16.1573 14.2568 15.8201 14.3184 15.5512 14.4414C15.2823 14.5645 15.0818 14.7308 14.9496 14.9404C14.8174 15.1501 14.7514 15.387 14.7514 15.6514C14.7514 15.8382 14.7947 16.0091 14.8813 16.1641C14.9678 16.3145 15.1 16.4557 15.2777 16.5879C15.4555 16.7155 15.6788 16.8363 15.9477 16.9502C16.2165 17.0641 16.5333 17.1735 16.8979 17.2783C17.4493 17.4424 17.9301 17.6247 18.3402 17.8252C18.7504 18.0212 19.0922 18.2445 19.3656 18.4951C19.6391 18.7458 19.8441 19.0306 19.9809 19.3496C20.1176 19.6641 20.1859 20.0218 20.1859 20.4229C20.1859 20.8421 20.1016 21.2204 19.933 21.5576C19.7644 21.8903 19.5229 22.1751 19.2084 22.4121C18.8985 22.6445 18.5248 22.8245 18.0873 22.9521C17.6544 23.0752 17.1713 23.1367 16.6381 23.1367C16.1596 23.1367 15.6879 23.0729 15.223 22.9453C14.7628 22.8177 14.3435 22.624 13.9652 22.3643C13.587 22.0999 13.2862 21.7718 13.0629 21.3799C12.8396 20.9834 12.7279 20.5208 12.7279 19.9922H14.4438C14.4438 20.3158 14.4984 20.5915 14.6078 20.8193C14.7217 21.0472 14.879 21.234 15.0795 21.3799C15.28 21.5212 15.5124 21.626 15.7768 21.6943C16.0456 21.7627 16.3327 21.7969 16.6381 21.7969C17.0391 21.7969 17.3741 21.7399 17.643 21.626C17.9164 21.512 18.1215 21.3525 18.2582 21.1475C18.3949 20.9424 18.4633 20.7054 18.4633 20.4365ZM25.8094 21.5166V17.9893C25.8094 17.7249 25.7615 17.4971 25.6658 17.3057C25.5701 17.1143 25.4243 16.9661 25.2283 16.8613C25.0369 16.7565 24.7954 16.7041 24.5037 16.7041C24.2348 16.7041 24.0024 16.7497 23.8064 16.8408C23.6105 16.932 23.4578 17.055 23.3484 17.21C23.2391 17.3649 23.1844 17.5404 23.1844 17.7363H21.5438C21.5438 17.4447 21.6144 17.1621 21.7557 16.8887C21.8969 16.6152 22.102 16.3714 22.3709 16.1572C22.6398 15.943 22.9611 15.7744 23.3348 15.6514C23.7085 15.5283 24.1277 15.4668 24.5926 15.4668C25.1486 15.4668 25.6408 15.5602 26.0691 15.7471C26.5021 15.9339 26.8416 16.2165 27.0877 16.5947C27.3383 16.9684 27.4637 17.4378 27.4637 18.0029V21.291C27.4637 21.6283 27.4865 21.9313 27.532 22.2002C27.5822 22.4645 27.6528 22.6947 27.7439 22.8906V23H26.0555C25.978 22.8223 25.9165 22.5967 25.8709 22.3232C25.8299 22.0452 25.8094 21.7764 25.8094 21.5166ZM26.0486 18.502L26.0623 19.5205H24.8797C24.5743 19.5205 24.3055 19.5501 24.073 19.6094C23.8406 19.6641 23.6469 19.7461 23.492 19.8555C23.337 19.9648 23.2208 20.097 23.1434 20.252C23.0659 20.4069 23.0271 20.5824 23.0271 20.7783C23.0271 20.9743 23.0727 21.1543 23.1639 21.3184C23.255 21.4779 23.3872 21.6032 23.5604 21.6943C23.7381 21.7855 23.9523 21.8311 24.2029 21.8311C24.5402 21.8311 24.8341 21.7627 25.0848 21.626C25.34 21.4847 25.5405 21.3138 25.6863 21.1133C25.8322 20.9082 25.9096 20.7145 25.9188 20.5322L26.452 21.2637C26.3973 21.4505 26.3038 21.651 26.1717 21.8652C26.0395 22.0794 25.8663 22.2845 25.6521 22.4805C25.4425 22.6719 25.1896 22.8291 24.8934 22.9521C24.6017 23.0752 24.2645 23.1367 23.8816 23.1367C23.3986 23.1367 22.9679 23.041 22.5896 22.8496C22.2114 22.6536 21.9152 22.3916 21.701 22.0635C21.4868 21.7308 21.3797 21.3548 21.3797 20.9355C21.3797 20.5436 21.4526 20.1973 21.5984 19.8965C21.7488 19.5911 21.9676 19.3359 22.2547 19.1309C22.5464 18.9258 22.9018 18.7708 23.3211 18.666C23.7404 18.5566 24.2189 18.502 24.7566 18.502H26.0486ZM31.5832 21.6943L33.3947 15.6035H35.1037L32.5334 23H31.467L31.5832 21.6943ZM30.1955 15.6035L32.0412 21.7217L32.1301 23H31.0637L28.4797 15.6035H30.1955ZM39.3873 23.1367C38.8404 23.1367 38.346 23.0479 37.9039 22.8701C37.4664 22.6878 37.0927 22.4349 36.7828 22.1113C36.4775 21.7878 36.2428 21.4072 36.0787 20.9697C35.9146 20.5322 35.8326 20.0605 35.8326 19.5547V19.2812C35.8326 18.7025 35.9169 18.1784 36.0855 17.709C36.2542 17.2396 36.4889 16.8385 36.7896 16.5059C37.0904 16.1686 37.4459 15.9111 37.8561 15.7334C38.2662 15.5557 38.7105 15.4668 39.1891 15.4668C39.7177 15.4668 40.1803 15.5557 40.5768 15.7334C40.9732 15.9111 41.3014 16.1618 41.5611 16.4854C41.8255 16.8044 42.0214 17.1849 42.149 17.627C42.2812 18.069 42.3473 18.5566 42.3473 19.0898V19.7939H36.6324V18.6113H40.7203V18.4814C40.7112 18.1852 40.652 17.9072 40.5426 17.6475C40.4378 17.3877 40.276 17.1781 40.0572 17.0186C39.8385 16.859 39.5468 16.7793 39.1822 16.7793C38.9088 16.7793 38.665 16.8385 38.4508 16.957C38.2411 17.071 38.0657 17.2373 37.9244 17.4561C37.7831 17.6748 37.6738 17.9391 37.5963 18.249C37.5234 18.5544 37.4869 18.8984 37.4869 19.2812V19.5547C37.4869 19.8783 37.5302 20.179 37.6168 20.457C37.7079 20.7305 37.8401 20.9697 38.0133 21.1748C38.1865 21.3799 38.3961 21.5417 38.6422 21.6602C38.8883 21.7741 39.1686 21.8311 39.483 21.8311C39.8795 21.8311 40.2327 21.7513 40.5426 21.5918C40.8525 21.4323 41.1214 21.2067 41.3492 20.915L42.2174 21.7559C42.0579 21.9883 41.8505 22.2116 41.5953 22.4258C41.3401 22.6354 41.0279 22.8063 40.6588 22.9385C40.2942 23.0706 39.8704 23.1367 39.3873 23.1367Z" fill="#6750A4"/>
</g>
<defs>
<clipPath id="clip0_83_41813">
<rect width="55" height="36" rx="18" fill="white"/>
</clipPath>
</defs>
</svg>
